#tb 0: 12/23
#media_type 0: video
#codec_id 0: rawvideo
#dimensions 0: 1024x768
#sar 0: 0/1
0,          1,          1,        1,   787456, 0x9369daec
0,          2,          2,        1,   787456, 0x1c61a5b8
0,          3,          3,        1,   787456, 0xb9c3af1f
0,          4,          4,        1,   787456, 0xc078bec7
0,          5,          5,        1,   787456, 0x31aece7b
0,          6,          6,        1,   787456, 0x060a869e
0,          7,          7,        1,   787456, 0x12bea936
0,          8,          8,        1,   787456, 0xb493af19
0,          9,          9,        1,   787456, 0xc8f4b0cc
0,         10,         10,        1,   787456, 0x21e4aad0
0,         11,         11,        1,   787456, 0xee84b8a0
0,         12,         12,        1,   787456, 0xcec7b254
0,         13,         13,        1,   787456, 0x90b98f22
0,         14,         14,        1,   787456, 0x113ae355
0,         15,         15,        1,   787456, 0xbe1dead9
0,         17,         17,        1,   787456, 0x81167b2e
0,         18,         18,        1,   787456, 0xc6d67b2e
0,         20,         20,        1,   787456, 0xe14686ce
0,         21,         21,        1,   787456, 0xc6d67b2e
0,         22,         22,        1,   787456, 0x3ef162f6
